<svg id="Layer_1" data-name="Layer 1" xmlns="http://www.w3.org/2000/svg" viewBox="0 0 400 400"><defs><style>.cls-1{font-size:108.51px;font-family:BlackOpsOne-Regular, Black Ops One;}.cls-1,.cls-5{fill:#fff;}.cls-2{fill:#31e89f;}.cls-2,.cls-3,.cls-4{opacity:0.6;}.cls-3{fill:#31e8e8;}.cls-4{fill:#31c6e8;}</style></defs><title>Logo</title><text class="cls-1" transform="translate(50.89 230) scale(1.07 1)">lets</text><polygon class="cls-2" points="260.15 200.73 260.15 72.2 141.14 7.93 22.13 72.2 22.13 200.73 141.14 265 260.15 200.73"/><polygon class="cls-3" points="260.15 327.8 260.15 199.27 141.14 135 22.13 199.27 22.13 327.8 141.14 392.07 260.15 327.8"/><polygon class="cls-4" points="377.87 264.15 377.87 135.62 258.86 71.36 139.85 135.62 139.85 264.15 258.86 328.42 377.87 264.15"/><path class="cls-5" d="M86.52,228.1H64.31L50.26,215V150.37h25v63.69H86.52Z"/><path class="cls-5" d="M117.45,228.1h-10l-15-14V185.87l15-14h10Zm4-22.57v-9.8h13.2v-9.86h-13.2v-14h21.24l15,14v19.66Zm0,22.57V215h33.65v6.09l-7.48,7Z"/><path class="cls-5" d="M194,214.06h16.54v14H184.07l-15.07-14V185.87h-5v-14h5v-6.09l25-8Zm4-28.19v-14h13.48v14Z"/><path class="cls-5" d="M244.74,217.77h11.11V228.1H230.07l-10.42-11.6V212h25.09Zm-11.5-45.94h10V191.7h28.55l13,12.29v11l-14,13.14H259.81V206.85H232.73l-13-11.71v-10.7Zm26.57,10.33H247.24V171.83h26.62l8.95,8.37v6.36h-23Z"/></svg>